<svg xmlns="http://www.w3.org/2000/svg" viewBox="0 0 589.02 111.49"><path d="M134.35,91.9V59.15a25.25,25.25,0,0,1,25-25.49h0a25.25,25.25,0,0,1,25,25.49V91.9" style="fill:none;stroke:#0a0a1d;stroke-linecap:round;stroke-miterlimit:10;stroke-width:15px"/><path d="M265.61,33.66V66.41a25.25,25.25,0,0,1-25,25.49h0a25.25,25.25,0,0,1-25-25.49V33.66" style="fill:none;stroke:#0a0a1d;stroke-linecap:round;stroke-miterlimit:10;stroke-width:15px"/><path d="M296.88,91.9V59.15a25.25,25.25,0,0,1,25-25.49h0a25.25,25.25,0,0,1,25,25.49V91.9" style="fill:none;stroke:#0a0a1d;stroke-linecap:round;stroke-miterlimit:10;stroke-width:15px"/><path d="M428.14,33.66V66.41a25.25,25.25,0,0,1-25,25.49h0a25.25,25.25,0,0,1-25-25.49V33.66" style="fill:none;stroke:#0a0a1d;stroke-linecap:round;stroke-miterlimit:10;stroke-width:15px"/><circle cx="517.47" cy="62.78" r="29.12" style="fill:none;stroke:#0a0a1d;stroke-miterlimit:10;stroke-width:15px"/><line x1="546.59" y1="33.66" x2="546.59" y2="91.9" style="fill:none;stroke:#0a0a1d;stroke-linecap:round;stroke-miterlimit:10;stroke-width:15px"/><circle cx="459.41" cy="91.9" r="7.5" style="fill:#0a0a1d"/><line x1="581.52" y1="92.05" x2="581.52" y2="33.82" style="fill:none;stroke:#0a0a1d;stroke-linecap:round;stroke-miterlimit:10;stroke-width:15px"/><circle cx="581.52" cy="7.5" r="7.5" style="fill:#0a0a1d"/><path d="M88.08,96.83l-87-2.91a1.17,1.17,0,0,0-.47,2.22l28.5,13.51A18.85,18.85,0,0,0,42,110.88l46.3-12.06A1,1,0,0,0,88.08,96.83Z" style="fill:#805ce5"/><path d="M10.66,86,78.24,90a2.15,2.15,0,0,0,2-3.08C69.85,68.68,56.77,29,55.38,5.25,55.08.24,53,3,52.2,4.52L9.05,82.72A2.16,2.16,0,0,0,10.66,86Z" style="fill:#e55cd8"/></svg>